<?xml version="1.0" encoding="iso-8859-1"?>
<!-- Uploaded to: SVG Repo, www.svgrepo.com, Generator: SVG Repo Mixer Tools -->
<svg version="1.1" id="Layer_1" xmlns="http://www.w3.org/2000/svg" xmlns:xlink="http://www.w3.org/1999/xlink" 
	 viewBox="0 0 512 512" xml:space="preserve">
<g>
	<rect x="52.301" y="344.086" style="fill:#b10000;" width="198.194" height="99.097"/>
	<rect x="52.301" y="200.946" style="fill:#b10000;" width="198.194" height="99.097"/>
</g>
<g>
	<rect x="344.086" y="382.624" style="fill:#E7ECED;" width="55.054" height="110.108"/>
	<rect x="399.14" y="382.624" style="fill:#E7ECED;" width="55.054" height="110.108"/>
</g>
<rect x="294.538" y="261.505" style="fill:#595E62;" width="115.613" height="44.043"/>
<polygon style="fill:#AFB6BB;" points="432.172,19.269 432.172,63.312 410.151,63.312 256,63.312 233.979,63.312 233.979,19.269 "/>
<g>
	<polygon style="fill:#7E8488;" points="410.151,63.312 410.151,261.505 294.538,261.505 294.538,151.398 256,151.398 256,63.312 	
		"/>
	<polygon style="fill:#7E8488;" points="503.742,305.548 503.742,492.731 454.194,492.731 454.194,382.624 399.14,382.624 
		344.086,382.624 344.086,492.731 294.538,492.731 294.538,305.548 410.151,305.548 	"/>
</g>
<path style="fill:#AFB6BB;" d="M294.538,305.548v187.183H8.258V85.333l66.065,60.559V85.333l66.065,60.559V85.333l66.065,66.065H256
	h38.538v110.108V305.548z M250.495,443.183v-99.097H52.301v99.097H250.495z M250.495,300.043v-99.097H52.301v99.097H250.495z"/>
<g>
	<path style="fill:#b10000;" d="M90.49,200.946H52.301v99.097h198.194v-23.868C181.42,269.157,122.865,240.683,90.49,200.946z"/>
	<path style="fill:#b10000;" d="M90.49,344.086H52.301v99.097h198.194v-23.868C181.42,412.297,122.865,383.823,90.49,344.086z"/>
</g>
<polygon style="fill:#959BA0;" points="52.301,443.183 52.301,344.086 151.398,344.086 151.398,300.043 52.301,300.043 
	52.301,200.946 148.399,200.946 148.64,93.595 140.387,85.333 140.387,145.892 74.323,85.333 74.323,145.892 8.258,85.333 
	8.258,492.731 151.398,492.731 151.398,443.183 "/>
<polygon style="fill:#707679;" points="294.538,305.548 294.538,492.731 344.086,492.731 344.086,382.624 399.14,382.624 
	399.14,305.548 "/>
<polygon style="fill:#99A0A4;" points="333.075,19.269 233.979,19.269 233.979,63.312 256,63.312 333.075,63.312 "/>
<polygon style="fill:#686E71;" points="256,63.312 256,151.398 294.538,151.398 294.538,261.505 333.075,261.505 333.075,63.312 "/>
<g>
	<rect x="283.527" y="93.591" style="fill:#FFFFFF;" width="99.097" height="16.516"/>
	<rect x="327.57" y="126.624" style="fill:#FFFFFF;" width="55.054" height="16.516"/>
	<rect x="355.097" y="159.656" style="fill:#FFFFFF;" width="27.527" height="16.516"/>
	<rect x="333.075" y="335.828" style="fill:#FFFFFF;" width="66.065" height="16.516"/>
	<rect x="443.183" y="335.828" style="fill:#FFFFFF;" width="22.022" height="16.516"/>
	<rect x="410.151" y="335.828" style="fill:#FFFFFF;" width="22.022" height="16.516"/>
</g>
<path d="M418.409,297.29V71.57h22.022V11.011H225.72V71.57h22.022v71.57h-37.87l-77.743-77.743v61.724L66.065,66.562v60.559
	L0,66.562v434.427h512V297.29H418.409z M302.796,269.763h99.097v27.527h-99.097V269.763z M242.237,27.527h181.677v27.527H242.237
	V27.527z M286.28,484.473H16.516V104.106l66.065,60.559v-60.559l65.865,60.082l0.199-58.919l54.387,54.387h83.248V484.473z
	 M264.258,143.14V71.57h137.634v181.677h-99.097V143.14H264.258z M352.344,484.473v-93.591h38.538v93.591H352.344z M445.935,484.473
	h-38.538v-93.591h38.538V484.473z M495.484,484.473h-33.032V374.366H335.828v110.108h-33.032V313.806h192.688V484.473z"/>
<path d="M44.043,308.301h214.71V192.688H44.043V308.301z M60.559,209.204h181.677v82.581H60.559V209.204z"/>
<path d="M44.043,451.441h214.71V335.828H44.043V451.441z M60.559,352.344h181.677v82.581H60.559V352.344z"/>
<g>
	<polygon style="fill:#FFFFFF;" points="93.591,261.505 77.075,261.505 77.075,225.72 167.914,225.72 167.914,242.237 
		93.591,242.237 	"/>
	<rect x="184.43" y="225.72" style="fill:#FFFFFF;" width="22.022" height="16.516"/>
	<polygon style="fill:#FFFFFF;" points="93.591,404.645 77.075,404.645 77.075,368.86 167.914,368.86 167.914,385.376 
		93.591,385.376 	"/>
	<rect x="184.43" y="368.86" style="fill:#FFFFFF;" width="22.022" height="16.516"/>
</g>
</svg>